# xmcd CD database file
#
# Track frame offsets:
#	150
#	13478
#	26365
#	40523
#	50368
#	63333
#	66705
#	79578
#	89378
#	100205
#	124870
#	137053
#	145918
#	162258
#
# Disc length: 2294 seconds
#
# Revision: 2
# Processed by: cddbd v1.5.2PL0 Copyright (c) Steve Scherf et al.
# Submitted via: CDex 1.70beta2
#
DISCID=bf08f40e
DTITLE=The McNeely-Levin-Skinner Band - After Midnight - CD-30
DYEAR=1990
DGENRE=Bluegrass
TTITLE0=Cajun Secret
TTITLE1=Foggy Mountain Breakdown
TTITLE2=After Midnight
TTITLE3=Spanish Lace
TTITLE4=Sittin' in the Morning Sun
TTITLE5=Sailor Had a Dream
TTITLE6=Leaf in the Wind
TTITLE7=Runaway Train
TTITLE8=Blue-Eyed Shiny Lady
TTITLE9=Pyrannees Suite
TTITLE10=Like Gin
TTITLE11=Doc Harris Hornpipe
TTITLE12=Coal Black Nights
TTITLE13=Pinnacle Mountain Breakdown
EXTD=YEAR: 1990
EXTT0=
EXTT1=
EXTT2=
EXTT3=
EXTT4=
EXTT5=
EXTT6=
EXTT7=
EXTT8=
EXTT9=
EXTT10=
EXTT11=
EXTT12=
EXTT13=
PLAYORDER=
